<?xml version="1.0" encoding="UTF-8" standalone="no"?>
<!DOCTYPE svg PUBLIC "-//W3C//DTD SVG 1.0//EN" "http://www.w3.org/TR/2001/PR-SVG-20010719/DTD/svg10.dtd">
<svg width="36cm" height="9cm" viewBox="188 237 709 167" xmlns="http://www.w3.org/2000/svg" xmlns:xlink="http://www.w3.org/1999/xlink">
  <g>
    <ellipse style="fill: #ffffff" cx="335.75" cy="322" rx="77.75" ry="18"/>
    <ellipse style="fill: none; fill-opacity:0; stroke-width: 2; stroke: #000000" cx="335.75" cy="322" rx="77.75" ry="18"/>
    <text font-size="12.7998" style="fill: #000000;text-anchor:middle;font-family:monospace;font-style:normal;font-weight:normal" x="335.75" y="326">WaitOrderPlaced</text>
  </g>
  <g>
    <ellipse style="fill: #ffffff" cx="635.15" cy="385" rx="93.15" ry="18"/>
    <ellipse style="fill: none; fill-opacity:0; stroke-width: 2; stroke: #000000" cx="635.15" cy="385" rx="93.15" ry="18"/>
    <text font-size="12.7998" style="fill: #000000;text-anchor:middle;font-family:monospace;font-style:normal;font-weight:normal" x="635.15" y="389">OrderPlacementError</text>
  </g>
  <g>
    <ellipse style="fill: #ffffff" cx="629.6" cy="266" rx="81.6" ry="18"/>
    <ellipse style="fill: none; fill-opacity:0; stroke-width: 2; stroke: #000000" cx="629.6" cy="266" rx="81.6" ry="18"/>
    <text font-size="12.7998" style="fill: #000000;text-anchor:middle;font-family:monospace;font-style:normal;font-weight:normal" x="629.6" y="270">WaitOrderCreated</text>
  </g>
  <g>
    <line style="fill: none; fill-opacity:0; stroke-width: 2; stroke: #000000" x1="390.728" y1="309.272" x2="543.688" y2="267.186"/>
    <polyline style="fill: none; fill-opacity:0; stroke-width: 2; stroke: #000000" points="537.529,274.067 545.844,266.593 534.876,264.425 "/>
  </g>
  <g>
    <line style="fill: none; fill-opacity:0; stroke-width: 2; stroke: #000000" x1="390.728" y1="334.728" x2="537.756" y2="383.59"/>
    <polyline style="fill: none; fill-opacity:0; stroke-width: 2; stroke: #000000" points="528.812,385.886 539.878,384.295 531.965,376.396 "/>
  </g>
  <g>
    <ellipse style="fill: #ffffff" cx="856.25" cy="265" rx="39.25" ry="18"/>
    <ellipse style="fill: none; fill-opacity:0; stroke-width: 2; stroke: #000000" cx="856.25" cy="265" rx="39.25" ry="18"/>
    <text font-size="12.7998" style="fill: #000000;text-anchor:middle;font-family:monospace;font-style:normal;font-weight:normal" x="856.25" y="269">Final</text>
  </g>
  <g>
    <line style="fill: none; fill-opacity:0; stroke-width: 2; stroke: #000000" x1="711.2" y1="266" x2="812.528" y2="265.042"/>
    <polyline style="fill: none; fill-opacity:0; stroke-width: 2; stroke: #000000" points="804.812,270.115 814.764,265.021 804.717,260.116 "/>
  </g>
  <text font-size="12.7998" style="fill: #000000;text-anchor:start;font-family:sans-serif;font-style:normal;font-weight:normal" x="343" y="291">
    <tspan x="343" y="291">OrderPlaced</tspan>
  </text>
  <text font-size="12.7998" style="fill: #000000;text-anchor:start;font-family:sans-serif;font-style:normal;font-weight:normal" x="456" y="257">
    <tspan x="456" y="257">CreateOrder</tspan>
  </text>
  <text font-size="12.7998" style="fill: #000000;text-anchor:start;font-family:sans-serif;font-style:normal;font-weight:normal" x="334" y="363">
    <tspan x="334" y="363">OrderRejected</tspan>
  </text>
  <text font-size="12.7998" style="fill: #000000;text-anchor:start;font-family:sans-serif;font-style:normal;font-weight:normal" x="698" y="249">
    <tspan x="698" y="249">OrderCreated</tspan>
  </text>
  <g>
    <line style="fill: none; fill-opacity:0; stroke-width: 2; stroke: #000000" x1="192.387" y1="321.819" x2="253.528" y2="321.988"/>
    <polyline style="fill: none; fill-opacity:0; stroke-width: 2; stroke: #000000" points="245.75,326.966 255.764,321.994 245.778,316.966 "/>
  </g>
  <text font-size="12.7998" style="fill: #000000;text-anchor:start;font-family:sans-serif;font-style:normal;font-weight:normal" x="188.183" y="308.365">
    <tspan x="188.183" y="308.365">PlaceOrder</tspan>
  </text>
</svg>
